<?xml version="1.0" encoding="utf-8"?>
<!-- Generator: Adobe Illustrator 26.0.1, SVG Export Plug-In . SVG Version: 6.00 Build 0)  -->
<svg version="1.1" id="Capa_1" xmlns="http://www.w3.org/2000/svg" xmlns:xlink="http://www.w3.org/1999/xlink" x="0px" y="0px"
	 viewBox="0 0 1417.3 1417.3" style="enable-background:new 0 0 1417.3 1417.3;" xml:space="preserve">
<style type="text/css">
	.st0{fill:#272C33;}
	.st1{fill:#272C33;stroke:#1D1D1B;stroke-width:0.6262;stroke-miterlimit:10;}
</style>
<path class="st0" d="M1105.5,416.3H226.8c-47,0-85-38.1-85-85v0c0-47,38.1-85,85-85h878.7c47,0,85,38.1,85,85v0
	C1190.6,378.2,1152.5,416.3,1105.5,416.3z"/>
<path class="st1" d="M687.5,1157.3H226.8c-47,0-85-38.1-85-85v0c0-47,38.1-85,85-85h460.7c47,0,85,38.1,85,85v0
	C772.5,1119.2,734.5,1157.3,687.5,1157.3z"/>
<path class="st0" d="M907.1,786.8H226.8c-47,0-85-38.1-85-85v0c0-47,38.1-85,85-85h680.3c47,0,85,38.1,85,85v0
	C992.1,748.7,954.1,786.8,907.1,786.8z"/>
</svg>
